<?xml version="1.0" encoding="UTF-8" standalone="no"?>
<!-- Created with Inkscape (http://www.inkscape.org/) -->

<svg
   width="236.19102mm"
   height="47.274704mm"
   viewBox="0 0 236.19102 47.274704"
   version="1.1"
   id="svg5"
   xml:space="preserve"
   xmlns="http://www.w3.org/2000/svg"
   xmlns:svg="http://www.w3.org/2000/svg"><defs
     id="defs2"><linearGradient
       id="linearGradient51004"><stop
         style="stop-color:#000000;stop-opacity:1;"
         offset="0"
         id="stop51002" /></linearGradient></defs><g
     id="layer1"
     transform="translate(407.4,-215.03611)"><path
       d="m -361.5564,215.99645 c -5.95424,-1.55709 -9.9081,3.08607 -11.17872,8.56932 l -5.36242,23.141 c -0.12615,0.54437 -0.4572,0.9144 -0.9144,0.9144 -0.3048,0 -0.5588,-0.1016 -0.762,-0.4064 l -11.03245,-18.59515 c -1.27,-1.8796 -3.3528,-3.2004 -5.7912,-3.2004 -3.7084,0 -6.2308,3.08543 -6.7564,6.7564 l -3.26271,22.78792 c -0.33335,2.3283 -0.0568,3.93656 1.95378,4.86669 1.93135,0.89346 3.94297,0.39742 4.88873,-1.43133 l 5.81017,-11.23466 c 0.39896,-0.77145 1.0615,-0.83699 1.34205,-0.8278 0.34103,0.0112 0.76276,0.0645 1.30583,0.67693 l 8.15047,9.19133 c 1.25747,1.41805 3.32335,3.92234 7.0828,3.80085 3.63322,-0.11741 5.60136,-2.37507 6.98235,-5.29847 l 13.39698,-28.19575 c 1.59151,-3.34954 0.27517,-9.91234 -5.85286,-11.51488 z"
       style="font-size:50.8px;font-family:Kimberella;-inkscape-font-specification:Kimberella;text-align:center;text-anchor:middle;fill:#fff51a;stroke:#fbfbfb;stroke-width:1.32292;stroke-linecap:square;stroke-miterlimit:22.3;stroke-dasharray:none;stroke-opacity:1;paint-order:markers stroke fill"
       id="path13869" /><path
       d="m -350.06607,251.56327 c 0,-1.28613 0.9315,-2.48362 2.39037,-2.50753 1.3247,-0.0217 6.10443,0.0117 8.49463,-0.0209 1.21414,-0.0166 2.14538,-0.90932 2.15086,-2.22764 l 0.0298,-7.16708 c 0.006,-1.44131 -1.0129,-2.53675 -2.22839,-2.53675 h -11.26435 c -6.22936,0.23061 -11.1926,6.05362 -11.1926,13.20266 0,7.14904 4.96324,11.17037 11.1926,11.34333 h 10.20924 c 1.21549,0 2.22839,-1.09542 2.22839,-2.4791 v -2.54161 c 0,-1.37762 -0.59272,-2.58477 -2.1588,-2.58477 -2.4485,0 -6.3102,-0.08 -7.40147,-0.08 -1.49859,0 -2.45028,-1.11447 -2.45028,-2.40061 z"
       style="font-size:50.8px;font-family:Kimberella;-inkscape-font-specification:Kimberella;text-align:center;text-anchor:middle;fill:#fff51a;stroke:#fbfbfb;stroke-width:1.32292;stroke-linecap:square;stroke-miterlimit:22.3;stroke-dasharray:none;stroke-opacity:1;paint-order:markers stroke fill"
       id="path13871" /><path
       id="path13873"
       style="font-size:50.8px;font-family:Kimberella;-inkscape-font-specification:Kimberella;text-align:center;text-anchor:middle;fill:#fff51a;stroke:#fbfbfb;stroke-width:1.32292;stroke-linecap:square;stroke-miterlimit:22.3;stroke-dasharray:none;stroke-opacity:1;paint-order:markers stroke fill"
       d="m -322.97169,237.94256 c -6.40071,-0.0351 -11.63288,5.18129 -11.63288,11.63288 0,6.4516 5.23208,11.58224 11.63288,11.58224 3.04799,0 5.09412,-0.51846 7.42545,-2.06878 0.10667,2.20901 0.97058,1.87983 2.20548,1.91685 h 1.85003 c 1.27,0 1.70584,-0.48715 1.70584,-1.70635 v -11.43408 c 0,-5.93213 -2.89147,-9.86638 -9.44187,-9.90225 z m 0.0646,8.08997 c 1.82336,1.5e-4 3.30145,1.47824 3.30161,3.3016 1.4e-4,1.82357 -1.47804,3.30198 -3.30161,3.30213 -1.82377,1.3e-4 -3.30226,-1.47836 -3.30212,-3.30213 1.6e-4,-1.82356 1.47856,-3.30173 3.30212,-3.3016 z" /><path
       d="m -306.88485,249.27075 v 9.4996 c 0,1.2192 1.016,2.2352 2.2352,2.2352 h 9.0424 c 1.27,0 2.286,-1.016 2.286,-2.2352 v -5.1816 c 0,-1.2192 1.016,-2.286 2.2352,-2.3368 1.3208,0 2.3368,1.0668 2.3368,2.3368 v 5.1816 c 0,1.2192 1.016,2.2352 2.286,2.2352 h 4.2799 c 1.2192,0 2.2352,-1.016 2.2352,-2.2352 v -9.4996 c 0,-6.2484 -5.0292,-11.2776 -11.2776,-11.2776 h -4.3815 c -6.2484,0 -11.2776,5.0292 -11.2776,11.2776 z"
       style="font-size:50.8px;font-family:Kimberella;-inkscape-font-specification:Kimberella;text-align:center;text-anchor:middle;fill:#fff51a;stroke:#fbfbfb;stroke-width:1.32292;stroke-linecap:square;stroke-miterlimit:22.3;stroke-dasharray:none;stroke-opacity:1;paint-order:markers stroke fill"
       id="path13875" /><path
       id="path18495-7"
       style="font-size:50.8px;font-family:Kimberella;-inkscape-font-specification:Kimberella;text-align:center;text-anchor:middle;fill:#fff51a;stroke:#fbfbfb;stroke-width:1.32292;stroke-linecap:square;stroke-miterlimit:22.3;stroke-dasharray:none;stroke-opacity:1;paint-order:markers stroke fill"
       d="m -224.22632,227.78168 c -2.99634,0.13233 -4.80106,2.85194 -6.19247,5.17921 -3.88874,6.26216 -11.21098,18.78023 -11.21098,18.78023 -1.95908,3.39323 -0.0878,6.69233 2.68194,8.4675 3.0743,1.97036 7.29897,1.10964 9.47797,-2.72039 l 6.89201,-14.4868 c 2.59862,5.19713 5.2042,10.4006 8.0048,15.4892 1.55039,2.58632 4.7842,3.50999 7.40752,1.74614 2.47236,-1.66234 2.70582,-4.56268 1.43086,-6.77097 0,0 -6.97427,-11.67717 -10.44714,-17.52362 -1.5746,-2.41534 -2.70058,-5.23153 -5.01711,-7.06052 -0.86701,-0.6576 -1.9238,-1.11617 -3.0274,-1.09998 z" /><path
       id="path18495-79"
       style="font-size:50.8px;font-family:Kimberella;-inkscape-font-specification:Kimberella;text-align:center;text-anchor:middle;fill:#fff51a;stroke:#fbfbfb;stroke-width:1.32292;stroke-linecap:square;stroke-miterlimit:22.3;stroke-dasharray:none;stroke-opacity:1;paint-order:markers stroke fill"
       d="m -266.52743,227.73797 c -3.91159,4e-5 -7.11223,3.20012 -7.11223,7.11171 v 19.65978 c 0,3.7084 3.04837,6.73305 6.7567,6.75618 l 17.07802,0.11989 c 2.8864,-1.7e-4 5.22616,-2.34016 5.22604,-5.22655 -1.6e-4,-2.88458 -2.33732,-5.22604 -5.2219,-5.22604 h -0.004 -0.002 c -0.009,0 -3.5729,0.0713 -9.08006,0.0713 v -16.10341 c 0,-3.91159 -2.64045,-7.16291 -6.60285,-7.16287 z" /><path
       id="path13882-9"
       style="font-size:50.8px;font-family:Kimberella;-inkscape-font-specification:Kimberella;text-align:center;text-anchor:middle;fill:#fff51a;stroke:#fbfbfb;stroke-width:1.32292;stroke-linecap:square;stroke-miterlimit:22.3;stroke-dasharray:none;stroke-opacity:1;paint-order:markers stroke fill"
       d="m -195.97409,226.96289 c -3.41565,-0.019 -6.32228,2.71314 -6.32055,6.12883 l 0.0116,22.95518 c 0.002,2.94984 2.66708,5.07412 5.58984,5.07411 l 13.62397,0.0181 c 6.18487,-4e-5 11.19871,-5.01827 11.1988,-11.20862 -9e-5,-6.19035 -5.01393,-11.27208 -11.1988,-11.27212 l -5.52369,-0.0166 0.006,-5.35109 c 0.004,-3.62546 -2.62365,-6.30133 -5.84419,-6.31922 z m 11.69819,20.82496 c 1.78549,-5e-5 3.23293,1.44739 3.23288,3.23288 5e-5,1.78549 -1.44739,3.23294 -3.23288,3.23288 -1.78549,6e-5 -3.23293,-1.44738 -3.23287,-3.23288 -6e-5,-1.78549 1.44738,-3.23293 3.23287,-3.23288 z" /></g></svg>
